<svg data-v-423bf9ae="" xmlns="http://www.w3.org/2000/svg" viewBox="0 0 58.00074310331082 60" class="icon"><!----><!----><!----><!----><g data-v-423bf9ae="" id="a058216f-14c4-4ed8-82a5-33fc70c78e61" transform="matrix(1.0000003814698721,0,0,1.0000003814698721,-2.0000031234263247,-2.000024843225418)" stroke="none" fill="white"><path d="M3 49h6a1 1 0 0 0 1-1V37c0-1.858-1.28-3.411-3-3.858V13.721l7 2.333V37c0 5.729 4.401 10.448 10 10.955V59c0 1.654 1.346 3 3 3h10c1.654 0 3-1.346 3-3V47.955c5.599-.507 10-5.226 10-10.955V16.054l9.316-3.105a1 1 0 0 0 0-1.898l-27-9a1.008 1.008 0 0 0-.633 0l-27 9a1 1 0 0 0 .001 1.898l.316.105v20.088c-1.72.447-3 2-3 3.858v11a1 1 0 0 0 1 1zm27.316-6.949L25 40.279v-2.661l2.553 1.276a1 1 0 0 0 .895 0L32 37.118l3.553 1.776a1 1 0 0 0 .895 0L39 37.618v2.661l-5.316 1.772A1 1 0 0 0 33 43v9h-2v-9a1 1 0 0 0-.684-.949zM38 54v2H26v-2h12zm0 5c0 .551-.449 1-1 1H27c-.551 0-1-.449-1-1v-1h12v1zm1-13a1 1 0 0 0-1 1v5h-3v-8.279l5.316-1.772A1 1 0 0 0 41 41v-5a.998.998 0 0 0-1.447-.895L36 36.882l-3.553-1.776a1 1 0 0 0-.895 0L28 36.882l-3.553-1.776A.998.998 0 0 0 23 36v5a1 1 0 0 0 .684.949L29 43.721V52h-3v-5a1 1 0 0 0-1-1c-4.962 0-9-4.038-9-9v-9.587l15.667 5.53a1 1 0 0 0 .666 0L48 27.413V37c0 4.962-4.038 9-9 9zm9-20.708l-16 5.647-16-5.647V16.72l15.684 5.228a.978.978 0 0 0 .632.001L48 16.721v8.571zM32 4.054L55.838 12 32 19.946 8.162 12 32 4.054zM4 37c0-1.103.897-2 2-2s2 .897 2 2v10H4V37z"></path></g><!----></svg>