<?xml version="1.0" encoding="utf-8"?>
<!-- Generator: Adobe Illustrator 21.1.0, SVG Export Plug-In . SVG Version: 6.00 Build 0)  -->
<svg version="1.1" id="圖層_1" xmlns="http://www.w3.org/2000/svg" xmlns:xlink="http://www.w3.org/1999/xlink" x="0px" y="0px"
	 viewBox="0 0 32 32" style="enable-background:new 0 0 32 32;" xml:space="preserve">
<style type="text/css">
	.st0{fill:#008ED6;}
</style>
<g>
	<path class="st0" d="M16,5c-3.4,0-6.2,2.7-6.2,6c0,0.3,0.2,0.5,0.5,0.5c0.3,0,0.5-0.2,0.5-0.5c0-2.8,2.3-5,5.2-5
		c0.3,0,0.5-0.2,0.5-0.5C16.5,5.2,16.3,5,16,5z"/>
	<path class="st0" d="M16,0C9.7,0,4.6,4.9,4.6,11c0,4,3.8,8.3,5.2,12.1c2.1,5.6,1.8,8.9,6.2,8.9c4.4,0,4.1-3.3,6.2-8.9
		c1.4-3.8,5.2-8.1,5.2-12.1C27.4,4.9,22.3,0,16,0z M16,30c-1,0-1.5-0.1-2.1-1.2l4.4-0.5C17.7,29.9,17.2,30,16,30z M19,26
		c-0.1,0.4-0.3,0.8-0.4,1.2l-5.1,0.6c-0.2-0.5-0.4-1.1-0.6-1.9c0,0,0,0,0,0l6.4-0.8C19.2,25.4,19.1,25.7,19,26z M19.7,24.1l-7,0.8
		c-0.2-0.6-0.4-1.2-0.6-1.9h8C19.9,23.4,19.8,23.7,19.7,24.1z M20.8,21h-9.6c-0.5-1.1-1.1-2.2-1.7-3.2C8.1,15.4,6.7,13,6.7,11
		c0-5,4.2-9,9.3-9c5.1,0,9.3,4,9.3,9c0,2-1.4,4.4-2.7,6.8C21.9,18.8,21.3,19.9,20.8,21z"/>
</g>
</svg>
