<?xml version="1.0" encoding="utf-8"?>
<!-- Generator: Adobe Illustrator 21.1.0, SVG Export Plug-In . SVG Version: 6.00 Build 0)  -->
<svg version="1.1" id="圖層_1" xmlns="http://www.w3.org/2000/svg" xmlns:xlink="http://www.w3.org/1999/xlink" x="0px" y="0px"
	 viewBox="0 0 32 32" style="enable-background:new 0 0 32 32;" xml:space="preserve">
<style type="text/css">
	.st0{fill:#008ED6;}
</style>
<g>
	<path class="st0" d="M3,15.1c0-2.1,1-4,2.5-5.3H1.4C0.6,9.8,0,10.4,0,11.1v8c0,0.7,0.6,1.3,1.4,1.3h2v1.2C3.4,22.4,4,23,4.8,23
		c0.8,0,1.4-0.6,1.4-1.3v-0.7C4.2,19.7,3,17.5,3,15.1z"/>
	<path class="st0" d="M30.6,9.8H14.9c1.5,1.3,2.5,3.2,2.5,5.3c0,2.2-1,4.1-2.6,5.4h11v1.2c0,0.7,0.6,1.3,1.4,1.3
		c0.8,0,1.4-0.6,1.4-1.3v-1.2h2c0.8,0,1.4-0.6,1.4-1.3v-8C32,10.4,31.4,9.8,30.6,9.8z M24.3,15.4c0,0.6-0.5,1.1-1.1,1.1
		c-0.6,0-1.1-0.5-1.1-1.1v-1.1c0-0.6,0.5-1.1,1.1-1.1c0.6,0,1.1,0.5,1.1,1.1V15.4z M27.7,15.4c0,0.6-0.5,1.1-1.1,1.1
		c-0.6,0-1.1-0.5-1.1-1.1v-1.1c0-0.6,0.5-1.1,1.1-1.1c0.6,0,1.1,0.5,1.1,1.1V15.4z"/>
	<path class="st0" d="M10.2,9C6.8,9,4,11.7,4,15.1c0,3.3,2.8,6.1,6.2,6.1c3.4,0,6.2-2.7,6.2-6.1C16.4,11.7,13.6,9,10.2,9z
		 M10.2,18.5c-1.9,0-3.5-1.5-3.5-3.4c0-1.9,1.5-3.4,3.5-3.4c1.9,0,3.5,1.5,3.5,3.4C13.6,16.9,12.1,18.5,10.2,18.5z"/>
</g>
</svg>
