<?xml version="1.0" encoding="utf-8"?>
<!-- Generator: Adobe Illustrator 21.1.0, SVG Export Plug-In . SVG Version: 6.00 Build 0)  -->
<svg version="1.1" id="圖層_1" xmlns="http://www.w3.org/2000/svg" xmlns:xlink="http://www.w3.org/1999/xlink" x="0px" y="0px"
	 viewBox="0 0 32 32" style="enable-background:new 0 0 32 32;" xml:space="preserve">
<style type="text/css">
	.st0{fill:#008ED6;}
</style>
<g>
	<path class="st0" d="M31,1.2H1c-0.6,0-1,0.4-1,1v3.3c0,0.5,0.5,1,1,1h2.3v15.2c0,0.5,0.5,1,1,1H15v3.1c-1,0.4-1.7,1.3-1.7,2.4
		c0,1.4,1.2,2.6,2.7,2.6c1.5,0,2.7-1.2,2.7-2.6c0-1.1-0.7-2-1.7-2.4v-3.1h10.6c0.6,0,1-0.4,1-1V6.5H31c0.6,0,1-0.4,1-1V2.2
		C32,1.7,31.5,1.2,31,1.2z M16,28.8c-0.4,0-0.7-0.3-0.7-0.6c0-0.4,0.3-0.6,0.7-0.6c0.4,0,0.7,0.3,0.7,0.6
		C16.7,28.5,16.4,28.8,16,28.8z M26.6,20.7H5.4V6.5h21.3V20.7z M30,4.5H2V3.2h28V4.5z"/>
	<path class="st0" d="M13.9,17.7c0.2,0.1,0.3,0.1,0.5,0.1c0.2,0,0.4-0.1,0.6-0.2l5-3.2c0.3-0.2,0.4-0.5,0.4-0.8
		c0-0.3-0.2-0.6-0.4-0.8l-5-3.2c-0.3-0.2-0.7-0.2-1,0c-0.3,0.2-0.5,0.5-0.5,0.9v6.5C13.3,17.2,13.5,17.5,13.9,17.7z M15.3,12.2
		l2.2,1.4L15.3,15V12.2z"/>
</g>
</svg>
