<?xml version="1.0" encoding="utf-8"?>
<!-- Generator: Adobe Illustrator 21.1.0, SVG Export Plug-In . SVG Version: 6.00 Build 0)  -->
<svg version="1.1" id="圖層_1" xmlns="http://www.w3.org/2000/svg" xmlns:xlink="http://www.w3.org/1999/xlink" x="0px" y="0px"
	 viewBox="0 0 32 32" style="enable-background:new 0 0 32 32;" xml:space="preserve">
<style type="text/css">
	.st0{fill:#008ED6;}
</style>
<g>
	<rect x="16" y="12.1" class="st0" width="4" height="3.9"/>
	<path class="st0" d="M2,23.7V10.1h22V14h2V6.4c0-1.2-1-2.2-2.2-2.2H23v1c0,1.1-0.9,2-2,2c-1.1,0-2-0.9-2-2v-1H7v1c0,1.1-0.9,2-2,2
		s-2-0.9-2-2v-1H2.2C1,4.2,0,5.2,0,6.4v17.3c0,1.2,1,2.2,2.2,2.2H14v-2H2.2C2.1,23.9,2,23.8,2,23.7z"/>
	<path class="st0" d="M24,16c-4.4,0-8,3.5-8,7.9c0,4.3,3.6,7.9,8,7.9c4.4,0,8-3.5,8-7.9C32,19.5,28.4,16,24,16z M24,29.7
		c-3.3,0-6-2.6-6-5.9c0-3.2,2.7-5.9,6-5.9c3.3,0,6,2.6,6,5.9C30,27.1,27.3,29.7,24,29.7z"/>
	<path class="st0" d="M5,6.2c0.6,0,1-0.4,1-1V1.3c0-0.5-0.4-1-1-1c-0.6,0-1,0.4-1,1v3.9C4,5.7,4.4,6.2,5,6.2z"/>
	<path class="st0" d="M21,6.2c0.6,0,1-0.4,1-1V1.3c0-0.5-0.4-1-1-1c-0.6,0-1,0.4-1,1v3.9C20,5.7,20.4,6.2,21,6.2z"/>
	<rect x="4" y="12.1" class="st0" width="4" height="3.9"/>
	<rect x="4" y="18" class="st0" width="4" height="3.9"/>
	<rect x="10" y="12.1" class="st0" width="4" height="3.9"/>
	<path class="st0" d="M24,18.9h-1v5.9h6v-1C29,21.1,26.8,18.9,24,18.9z"/>
	<rect x="10" y="18" class="st0" width="4" height="3.9"/>
</g>
</svg>
