<?xml version="1.0" encoding="utf-8"?>
<!-- Generator: Adobe Illustrator 21.1.0, SVG Export Plug-In . SVG Version: 6.00 Build 0)  -->
<svg version="1.1" id="圖層_1" xmlns="http://www.w3.org/2000/svg" xmlns:xlink="http://www.w3.org/1999/xlink" x="0px" y="0px"
	 viewBox="0 0 32 32" style="enable-background:new 0 0 32 32;" xml:space="preserve">
<style type="text/css">
	.st0{fill:#008ED6;}
</style>
<path class="st0" d="M30,22.6l-2.3-1.3l1.8-0.5c0.6-0.1,0.9-0.7,0.7-1.2c-0.1-0.5-0.7-0.9-1.3-0.7l-3.8,1l-1.9-1.1l4.6-2
	c0.4-0.2,0.6-0.5,0.6-0.9c0-0.4-0.2-0.8-0.6-0.9l-4.6-2l1.9-1.1l3.8,1c0.1,0,0.2,0,0.3,0c0.5,0,0.9-0.3,1-0.7
	c0.1-0.5-0.2-1.1-0.7-1.2l-1.8-0.5L30,9.4c0.5-0.3,0.7-0.9,0.4-1.4c-0.3-0.5-0.9-0.6-1.4-0.4l-2.3,1.3l0.5-1.8
	c0.1-0.5-0.2-1.1-0.7-1.2c-0.6-0.1-1.1,0.2-1.3,0.7l-1,3.7l-1.9,1.1l0.5-4.8c0-0.4-0.2-0.8-0.5-1c-0.4-0.2-0.8-0.2-1.1,0.1L17,8.5
	V6.4l2.8-2.7c0.4-0.4,0.4-1,0-1.4c-0.4-0.4-1.1-0.4-1.5,0L17,3.6V1c0-0.6-0.5-1-1-1c-0.6,0-1,0.4-1,1v2.6l-1.3-1.3
	c-0.4-0.4-1.1-0.4-1.5,0c-0.4,0.4-0.4,1,0,1.4L15,6.4v2.1l-4.1-2.9c-0.3-0.2-0.8-0.3-1.1-0.1c-0.4,0.2-0.6,0.6-0.5,1l0.5,4.8
	l-1.9-1.1l-1-3.7C6.7,6.1,6.2,5.8,5.6,5.9C5.1,6.1,4.7,6.6,4.9,7.2l0.5,1.8L3,7.6C2.5,7.4,1.9,7.5,1.6,8C1.3,8.5,1.5,9.1,2,9.4
	l2.3,1.3l-1.8,0.5c-0.6,0.1-0.9,0.7-0.7,1.2c0.1,0.4,0.5,0.7,1,0.7c0.1,0,0.2,0,0.3,0l3.8-1l1.9,1.1l-4.6,2
	c-0.4,0.2-0.6,0.5-0.6,0.9c0,0.4,0.2,0.8,0.6,0.9l4.6,2l-1.9,1.1l-3.8-1c-0.6-0.1-1.1,0.2-1.3,0.7c-0.1,0.5,0.2,1.1,0.7,1.2l1.8,0.5
	L2,22.6c-0.5,0.3-0.7,0.9-0.4,1.4c0.2,0.3,0.5,0.5,0.9,0.5c0.2,0,0.4,0,0.5-0.1l2.3-1.3l-0.5,1.8c-0.1,0.5,0.2,1.1,0.7,1.2
	c0.1,0,0.2,0,0.3,0c0.5,0,0.9-0.3,1-0.7l1-3.7l1.9-1.1l-0.5,4.8c0,0.4,0.2,0.8,0.5,1c0.4,0.2,0.8,0.2,1.1-0.1l4.1-2.9v2.1l-2.8,2.7
	c-0.4,0.4-0.4,1,0,1.4c0.4,0.4,1.1,0.4,1.5,0l1.3-1.3V31c0,0.6,0.5,1,1,1c0.6,0,1-0.4,1-1v-2.6l1.3,1.3c0.2,0.2,0.5,0.3,0.7,0.3
	c0.3,0,0.5-0.1,0.7-0.3c0.4-0.4,0.4-1,0-1.4L17,25.6v-2.1l4.1,2.9c0.2,0.1,0.4,0.2,0.6,0.2c0.2,0,0.4,0,0.5-0.1
	c0.4-0.2,0.6-0.6,0.5-1l-0.5-4.8l1.9,1.1l1,3.7c0.1,0.4,0.5,0.7,1,0.7c0.1,0,0.2,0,0.3,0c0.6-0.1,0.9-0.7,0.7-1.2l-0.5-1.8l2.3,1.3
	c0.2,0.1,0.3,0.1,0.5,0.1c0.4,0,0.7-0.2,0.9-0.5C30.7,23.5,30.5,22.9,30,22.6z M20.5,17.8c-0.4,0.2-0.7,0.6-0.6,1l0.5,4.5l-3.8-2.7
	c-0.2-0.1-0.4-0.2-0.6-0.2c-0.2,0-0.4,0.1-0.6,0.2l-3.8,2.7l0.5-4.5c0-0.4-0.2-0.8-0.6-1L7.2,16l4.3-1.8c0.4-0.2,0.7-0.6,0.6-1
	l-0.5-4.5l3.8,2.7c0.4,0.3,0.9,0.3,1.2,0l3.8-2.7l-0.5,4.5c0,0.4,0.2,0.8,0.6,1l4.3,1.8L20.5,17.8z"/>
</svg>
