<svg data-v-423bf9ae="" xmlns="http://www.w3.org/2000/svg" viewBox="0 0 497 90" class="iconLeftSlogan"><!----><!----><!----><g data-v-423bf9ae="" id="b420b0e6-8bfc-49da-b4af-6189ca69c28b" fill="white" transform="matrix(4.480956141520432,0,0,4.480956141520432,103.81964333953263,-15.728156252421563)"><path d="M3.92 13.71L3.92 13.71Q3.05 13.71 2.16 13.52L2.16 13.52L2.16 13.52Q1.26 13.33 0.71 13.08L0.71 13.08L0.90 11.66L0.90 11.66Q1.60 12.00 2.48 12.25L2.48 12.25L2.48 12.25Q3.36 12.50 4.23 12.50L4.23 12.50L4.23 12.50Q5.21 12.50 5.75 12.14L5.75 12.14L5.75 12.14Q6.29 11.79 6.29 11.07L6.29 11.07L6.29 11.07Q6.29 10.54 6.01 10.18L6.01 10.18L6.01 10.18Q5.74 9.83 5.21 9.58L5.21 9.58L5.21 9.58Q4.69 9.34 3.75 9.06L3.75 9.06L3.75 9.06Q2.80 8.78 2.17 8.46L2.17 8.46L2.17 8.46Q1.54 8.13 1.16 7.57L1.16 7.57L1.16 7.57Q0.77 7.01 0.77 6.16L0.77 6.16L0.77 6.16Q0.77 4.97 1.69 4.24L1.69 4.24L1.69 4.24Q2.60 3.51 4.27 3.51L4.27 3.51L4.27 3.51Q5.17 3.51 5.97 3.71L5.97 3.71L5.97 3.71Q6.78 3.91 7.38 4.19L7.38 4.19L7.24 5.60L7.24 5.60Q6.45 5.14 5.73 4.93L5.73 4.93L5.73 4.93Q5.00 4.72 4.21 4.72L4.21 4.72L4.21 4.72Q3.30 4.72 2.77 5.05L2.77 5.05L2.77 5.05Q2.23 5.39 2.23 6.09L2.23 6.09L2.23 6.09Q2.23 6.57 2.47 6.87L2.47 6.87L2.47 6.87Q2.72 7.18 3.18 7.40L3.18 7.40L3.18 7.40Q3.64 7.62 4.47 7.87L4.47 7.87L4.47 7.87Q6.12 8.37 6.93 9.06L6.93 9.06L6.93 9.06Q7.74 9.76 7.74 10.98L7.74 10.98L7.74 10.98Q7.74 12.26 6.78 12.98L6.78 12.98L6.78 12.98Q5.81 13.71 3.92 13.71L3.92 13.71ZM17.04 6.51L17.04 6.51Q19.67 6.51 19.67 9.46L19.67 9.46L19.67 13.51L18.41 13.51L18.41 9.48L18.41 9.48Q18.41 8.51 18.03 8.07L18.03 8.07L18.03 8.07Q17.65 7.63 16.80 7.63L16.80 7.63L16.80 7.63Q14.98 7.63 14.98 9.53L14.98 9.53L14.98 13.51L13.72 13.51L13.72 9.73L13.72 9.73Q13.72 8.55 13.31 8.09L13.31 8.09L13.31 8.09Q12.89 7.63 12.11 7.63L12.11 7.63L12.11 7.63Q11.49 7.63 11.02 7.85L11.02 7.85L11.02 7.85Q10.54 8.08 10.29 8.53L10.29 8.53L10.29 13.51L9.03 13.51L9.03 6.65L10.01 6.65L10.15 7.38L10.15 7.38Q10.67 6.92 11.19 6.71L11.19 6.71L11.19 6.71Q11.72 6.51 12.32 6.51L12.32 6.51L12.32 6.51Q13.89 6.51 14.53 7.88L14.53 7.88L14.53 7.88Q15.25 6.51 17.04 6.51L17.04 6.51ZM22.90 13.65L22.90 13.65Q21.95 13.65 21.37 13.09L21.37 13.09L21.37 13.09Q20.79 12.53 20.79 11.66L20.79 11.66L20.79 11.66Q20.79 10.36 22.02 9.80L22.02 9.80L22.02 9.80Q23.25 9.24 24.89 9.21L24.89 9.21L24.89 9.21Q24.89 8.29 24.54 7.96L24.54 7.96L24.54 7.96Q24.18 7.63 23.39 7.63L23.39 7.63L23.39 7.63Q22.96 7.63 22.53 7.76L22.53 7.76L22.53 7.76Q22.09 7.90 21.59 8.25L21.59 8.25L21.41 7.22L21.41 7.22Q21.83 6.90 22.44 6.71L22.44 6.71L22.44 6.71Q23.06 6.51 23.73 6.51L23.73 6.51L23.73 6.51Q24.61 6.51 25.14 6.82L25.14 6.82L25.14 6.82Q25.66 7.13 25.91 7.84L25.91 7.84L25.91 7.84Q26.15 8.55 26.15 9.80L26.15 9.80L26.15 11.20L26.15 11.20Q26.15 11.76 26.20 12.05L26.20 12.05L26.20 12.05Q26.25 12.33 26.42 12.49L26.42 12.49L26.42 12.49Q26.59 12.64 26.94 12.64L26.94 12.64L27.06 12.64L26.87 13.65L26.77 13.65L26.77 13.65Q26.18 13.65 25.84 13.54L25.84 13.54L25.84 13.54Q25.51 13.43 25.33 13.22L25.33 13.22L25.33 13.22Q25.16 13.01 25.00 12.64L25.00 12.64L25.00 12.64Q24.14 13.65 22.90 13.65L22.90 13.65ZM23.14 12.64L23.14 12.64Q23.65 12.64 24.12 12.39L24.12 12.39L24.12 12.39Q24.58 12.14 24.89 11.72L24.89 11.72L24.89 10.08L24.89 10.08Q23.38 10.14 22.73 10.48L22.73 10.48L22.73 10.48Q22.08 10.82 22.08 11.59L22.08 11.59L22.08 11.59Q22.08 12.12 22.37 12.38L22.37 12.38L22.37 12.38Q22.65 12.64 23.14 12.64L23.14 12.64ZM28.03 13.51L28.03 6.65L29.06 6.65L29.22 7.78L29.22 7.78Q29.75 7.13 30.23 6.82L30.23 6.82L30.23 6.82Q30.72 6.51 31.25 6.51L31.25 6.51L31.25 6.51Q31.42 6.51 31.57 6.55L31.57 6.55L31.44 7.94L31.44 7.94Q31.26 7.90 31.02 7.90L31.02 7.90L31.02 7.90Q30.51 7.90 30.04 8.13L30.04 8.13L30.04 8.13Q29.58 8.36 29.37 8.67L29.37 8.67L29.37 13.51L28.03 13.51ZM34.82 13.65L34.82 13.65Q33.91 13.65 33.47 13.17L33.47 13.17L33.47 13.17Q33.03 12.70 33.03 12.01L33.03 12.01L33.03 7.63L31.85 7.63L31.96 6.65L33.03 6.65L33.03 4.96L34.29 4.83L34.29 6.65L36.09 6.65L36.09 7.63L34.29 7.63L34.29 11.24L34.29 11.24Q34.29 11.96 34.37 12.22L34.37 12.22L34.37 12.22Q34.45 12.49 34.73 12.56L34.73 12.56L34.73 12.56Q35 12.64 35.73 12.64L35.73 12.64L36.05 12.64L35.95 13.65L34.82 13.65ZM44.95 13.71L44.95 13.71Q43.53 13.71 42.41 13.08L42.41 13.08L42.41 13.08Q41.29 12.45 40.65 11.29L40.65 11.29L40.65 11.29Q40.01 10.14 40.01 8.61L40.01 8.61L40.01 8.61Q40.01 7.08 40.66 5.93L40.66 5.93L40.66 5.93Q41.30 4.77 42.43 4.14L42.43 4.14L42.43 4.14Q43.57 3.51 45.01 3.51L45.01 3.51L45.01 3.51Q45.72 3.51 46.41 3.67L46.41 3.67L46.41 3.67Q47.10 3.82 47.63 4.09L47.63 4.09L47.49 5.32L47.49 5.32Q46.23 4.72 45.00 4.72L45.00 4.72L45.00 4.72Q43.88 4.72 43.08 5.23L43.08 5.23L43.08 5.23Q42.28 5.74 41.87 6.62L41.87 6.62L41.87 6.62Q41.47 7.50 41.47 8.61L41.47 8.61L41.47 8.61Q41.47 9.72 41.87 10.60L41.87 10.60L41.87 10.60Q42.28 11.48 43.06 11.99L43.06 11.99L43.06 11.99Q43.85 12.50 44.97 12.50L44.97 12.50L44.97 12.50Q46.28 12.50 47.49 11.91L47.49 11.91L47.63 13.15L47.63 13.15Q46.41 13.71 44.95 13.71L44.95 13.71ZM50.54 13.65L50.54 13.65Q49.59 13.65 49.01 13.09L49.01 13.09L49.01 13.09Q48.43 12.53 48.43 11.66L48.43 11.66L48.43 11.66Q48.43 10.36 49.66 9.80L49.66 9.80L49.66 9.80Q50.89 9.24 52.53 9.21L52.53 9.21L52.53 9.21Q52.53 8.29 52.17 7.96L52.17 7.96L52.17 7.96Q51.81 7.63 51.03 7.63L51.03 7.63L51.03 7.63Q50.60 7.63 50.16 7.76L50.16 7.76L50.16 7.76Q49.73 7.90 49.22 8.25L49.22 8.25L49.04 7.22L49.04 7.22Q49.46 6.90 50.08 6.71L50.08 6.71L50.08 6.71Q50.69 6.51 51.37 6.51L51.37 6.51L51.37 6.51Q52.25 6.51 52.77 6.82L52.77 6.82L52.77 6.82Q53.30 7.13 53.54 7.84L53.54 7.84L53.54 7.84Q53.79 8.55 53.79 9.80L53.79 9.80L53.79 11.20L53.79 11.20Q53.79 11.76 53.84 12.05L53.84 12.05L53.84 12.05Q53.89 12.33 54.05 12.49L54.05 12.49L54.05 12.49Q54.22 12.64 54.57 12.64L54.57 12.64L54.70 12.64L54.50 13.65L54.40 13.65L54.40 13.65Q53.82 13.65 53.48 13.54L53.48 13.54L53.48 13.54Q53.14 13.43 52.97 13.22L52.97 13.22L52.97 13.22Q52.79 13.01 52.64 12.64L52.64 12.64L52.64 12.64Q51.77 13.65 50.54 13.65L50.54 13.65ZM50.78 12.64L50.78 12.64Q51.28 12.64 51.75 12.39L51.75 12.39L51.75 12.39Q52.22 12.14 52.53 11.72L52.53 11.72L52.53 10.08L52.53 10.08Q51.02 10.14 50.37 10.48L50.37 10.48L50.37 10.48Q49.71 10.82 49.71 11.59L49.71 11.59L49.71 11.59Q49.71 12.12 50.00 12.38L50.00 12.38L50.00 12.38Q50.29 12.64 50.78 12.64L50.78 12.64ZM63.67 6.51L63.67 6.51Q66.30 6.51 66.30 9.46L66.30 9.46L66.30 13.51L65.04 13.51L65.04 9.48L65.04 9.48Q65.04 8.51 64.67 8.07L64.67 8.07L64.67 8.07Q64.29 7.63 63.43 7.63L63.43 7.63L63.43 7.63Q61.61 7.63 61.61 9.53L61.61 9.53L61.61 13.51L60.35 13.51L60.35 9.73L60.35 9.73Q60.35 8.55 59.94 8.09L59.94 8.09L59.94 8.09Q59.53 7.63 58.74 7.63L58.74 7.63L58.74 7.63Q58.13 7.63 57.65 7.85L57.65 7.85L57.65 7.85Q57.18 8.08 56.92 8.53L56.92 8.53L56.92 13.51L55.66 13.51L55.66 6.65L56.64 6.65L56.78 7.38L56.78 7.38Q57.30 6.92 57.83 6.71L57.83 6.71L57.83 6.71Q58.35 6.51 58.95 6.51L58.95 6.51L58.95 6.51Q60.52 6.51 61.17 7.88L61.17 7.88L61.17 7.88Q61.88 6.51 63.67 6.51L63.67 6.51ZM71.43 6.51L71.43 6.51Q72.34 6.51 73.02 6.98L73.02 6.98L73.02 6.98Q73.70 7.45 74.06 8.26L74.06 8.26L74.06 8.26Q74.42 9.07 74.42 10.08L74.42 10.08L74.42 10.08Q74.42 11.10 74.08 11.91L74.08 11.91L74.08 11.91Q73.74 12.71 73.07 13.18L73.07 13.18L73.07 13.18Q72.39 13.65 71.43 13.65L71.43 13.65L71.43 13.65Q70.71 13.65 70.13 13.40L70.13 13.40L70.13 13.40Q69.54 13.15 69.20 12.67L69.20 12.67L69.20 16.90L67.94 16.90L67.94 6.65L68.92 6.65L69.06 7.60L69.06 7.60Q69.93 6.51 71.43 6.51L71.43 6.51ZM71.19 12.53L71.19 12.53Q72.10 12.53 72.62 11.88L72.62 11.88L72.62 11.88Q73.14 11.23 73.14 10.08L73.14 10.08L73.14 10.08Q73.14 8.93 72.62 8.28L72.62 8.28L72.62 8.28Q72.10 7.63 71.19 7.63L71.19 7.63L71.19 7.63Q70.29 7.63 69.71 8.26L69.71 8.26L69.71 8.26Q69.13 8.89 69.13 10.08L69.13 10.08L69.13 10.08Q69.13 11.31 69.71 11.92L69.71 11.92L69.71 11.92Q70.28 12.53 71.19 12.53L71.19 12.53ZM80.11 6.65L81.37 6.65L81.37 13.51L80.25 13.51L80.11 12.75L80.11 12.75Q79.77 13.22 79.32 13.43L79.32 13.43L79.32 13.43Q78.86 13.65 78.20 13.65L78.20 13.65L78.20 13.65Q76.97 13.65 76.32 12.90L76.32 12.90L76.32 12.90Q75.67 12.15 75.67 10.64L75.67 10.64L75.67 6.65L76.93 6.65L76.93 10.29L76.93 10.29Q76.93 11.41 77.32 11.97L77.32 11.97L77.32 11.97Q77.70 12.53 78.53 12.53L78.53 12.53L78.53 12.53Q79.02 12.53 79.44 12.33L79.44 12.33L79.44 12.33Q79.87 12.14 80.11 11.76L80.11 11.76L80.11 6.65ZM85.02 13.65L85.02 13.65Q84.21 13.65 83.60 13.46L83.60 13.46L83.60 13.46Q82.99 13.27 82.67 13.05L82.67 13.05L82.82 11.83L82.82 11.83Q83.10 12.08 83.69 12.31L83.69 12.31L83.69 12.31Q84.27 12.53 84.97 12.53L84.97 12.53L84.97 12.53Q85.62 12.53 85.98 12.31L85.98 12.31L85.98 12.31Q86.34 12.08 86.34 11.68L86.34 11.68L86.34 11.68Q86.34 11.20 85.95 10.96L85.95 10.96L85.95 10.96Q85.55 10.71 84.97 10.54L84.97 10.54L84.97 10.54Q84.32 10.37 83.88 10.18L83.88 10.18L83.88 10.18Q83.44 10.00 83.13 9.60L83.13 9.60L83.13 9.60Q82.81 9.21 82.81 8.57L82.81 8.57L82.81 8.57Q82.81 7.69 83.44 7.10L83.44 7.10L83.44 7.10Q84.07 6.51 85.39 6.51L85.39 6.51L85.39 6.51Q85.99 6.51 86.41 6.63L86.41 6.63L86.41 6.63Q86.83 6.75 87.25 6.96L87.25 6.96L87.09 8.11L87.09 8.11Q86.76 7.83 86.35 7.67L86.35 7.67L86.35 7.67Q85.95 7.50 85.41 7.50L85.41 7.50L85.41 7.50Q84.80 7.50 84.44 7.73L84.44 7.73L84.44 7.73Q84.08 7.97 84.08 8.43L84.08 8.43L84.08 8.43Q84.08 8.74 84.25 8.93L84.25 8.93L84.25 8.93Q84.42 9.11 84.73 9.24L84.73 9.24L84.73 9.24Q85.04 9.37 85.68 9.56L85.68 9.56L85.68 9.56Q86.48 9.80 87.06 10.23L87.06 10.23L87.06 10.23Q87.64 10.67 87.64 11.61L87.64 11.61L87.64 11.61Q87.64 12.45 87.05 13.05L87.05 13.05L87.05 13.05Q86.45 13.65 85.02 13.65L85.02 13.65Z"></path></g><!----><g data-v-423bf9ae="" id="7dcbf2f5-1a77-4fb7-96ae-ca9d0b5fb169" transform="matrix(1.5000005722048082,0,0,1.5000005722048082,-2.5005596639869907,-3.000013184561645)" stroke="none" fill="white"><path d="M3 49h6a1 1 0 0 0 1-1V37c0-1.858-1.28-3.411-3-3.858V13.721l7 2.333V37c0 5.729 4.401 10.448 10 10.955V59c0 1.654 1.346 3 3 3h10c1.654 0 3-1.346 3-3V47.955c5.599-.507 10-5.226 10-10.955V16.054l9.316-3.105a1 1 0 0 0 0-1.898l-27-9a1.008 1.008 0 0 0-.633 0l-27 9a1 1 0 0 0 .001 1.898l.316.105v20.088c-1.72.447-3 2-3 3.858v11a1 1 0 0 0 1 1zm27.316-6.949L25 40.279v-2.661l2.553 1.276a1 1 0 0 0 .895 0L32 37.118l3.553 1.776a1 1 0 0 0 .895 0L39 37.618v2.661l-5.316 1.772A1 1 0 0 0 33 43v9h-2v-9a1 1 0 0 0-.684-.949zM38 54v2H26v-2h12zm0 5c0 .551-.449 1-1 1H27c-.551 0-1-.449-1-1v-1h12v1zm1-13a1 1 0 0 0-1 1v5h-3v-8.279l5.316-1.772A1 1 0 0 0 41 41v-5a.998.998 0 0 0-1.447-.895L36 36.882l-3.553-1.776a1 1 0 0 0-.895 0L28 36.882l-3.553-1.776A.998.998 0 0 0 23 36v5a1 1 0 0 0 .684.949L29 43.721V52h-3v-5a1 1 0 0 0-1-1c-4.962 0-9-4.038-9-9v-9.587l15.667 5.53a1 1 0 0 0 .666 0L48 27.413V37c0 4.962-4.038 9-9 9zm9-20.708l-16 5.647-16-5.647V16.72l15.684 5.228a.978.978 0 0 0 .632.001L48 16.721v8.571zM32 4.054L55.838 12 32 19.946 8.162 12 32 4.054zM4 37c0-1.103.897-2 2-2s2 .897 2 2v10H4V37z"></path></g><!----><g data-v-423bf9ae="" id="8402c7d3-cda1-439d-9032-b39044ab48e2" fill="white" transform="matrix(1.1930459434775316,0,0,1.1930459434775316,105.66489791256166,55.81240752796447)"><path d="M1.12 13.51L1.12 3.71L7.10 3.71L7.10 4.91L2.45 4.91L2.45 7.78L6.03 7.78L6.03 8.99L2.45 8.99L2.45 13.51L1.12 13.51ZM12.71 13.71L12.71 13.71Q11.31 13.71 10.21 13.08L10.21 13.08L10.21 13.08Q9.11 12.45 8.50 11.29L8.50 11.29L8.50 11.29Q7.88 10.14 7.88 8.61L7.88 8.61L7.88 8.61Q7.88 7.08 8.50 5.93L8.50 5.93L8.50 5.93Q9.11 4.77 10.21 4.14L10.21 4.14L10.21 4.14Q11.31 3.51 12.71 3.51L12.71 3.51L12.71 3.51Q14.11 3.51 15.21 4.14L15.21 4.14L15.21 4.14Q16.31 4.77 16.93 5.93L16.93 5.93L16.93 5.93Q17.54 7.08 17.54 8.61L17.54 8.61L17.54 8.61Q17.54 10.14 16.93 11.29L16.93 11.29L16.93 11.29Q16.31 12.45 15.21 13.08L15.21 13.08L15.21 13.08Q14.11 13.71 12.71 13.71L12.71 13.71ZM12.71 12.42L12.71 12.42Q13.80 12.42 14.57 11.92L14.57 11.92L14.57 11.92Q15.34 11.42 15.73 10.56L15.73 10.56L15.73 10.56Q16.11 9.70 16.11 8.61L16.11 8.61L16.11 8.61Q16.11 7.52 15.73 6.66L15.73 6.66L15.73 6.66Q15.34 5.80 14.57 5.30L14.57 5.30L14.57 5.30Q13.80 4.80 12.71 4.80L12.71 4.80L12.71 4.80Q11.62 4.80 10.85 5.30L10.85 5.30L10.85 5.30Q10.08 5.80 9.70 6.66L9.70 6.66L9.70 6.66Q9.31 7.52 9.31 8.61L9.31 8.61L9.31 8.61Q9.31 9.70 9.70 10.56L9.70 10.56L9.70 10.56Q10.08 11.42 10.85 11.92L10.85 11.92L10.85 11.92Q11.62 12.42 12.71 12.42L12.71 12.42ZM19.22 13.51L19.22 3.71L22.40 3.71L22.40 3.71Q24.00 3.71 24.89 4.45L24.89 4.45L24.89 4.45Q25.79 5.18 25.79 6.69L25.79 6.69L25.79 6.69Q25.79 8.65 24.08 9.45L24.08 9.45L26.28 13.51L24.65 13.51L22.67 9.69L22.60 9.69L20.62 9.69L20.62 13.51L19.22 13.51ZM20.62 8.50L22.39 8.50L22.39 8.50Q23.37 8.50 23.88 8.02L23.88 8.02L23.88 8.02Q24.40 7.55 24.40 6.69L24.40 6.69L24.40 6.69Q24.40 5.84 23.89 5.37L23.89 5.37L23.89 5.37Q23.38 4.90 22.39 4.90L22.39 4.90L20.62 4.90L20.62 8.50ZM36.82 13.51L35.88 10.86L32.13 10.86L31.19 13.51L29.79 13.51L33.31 3.71L34.71 3.71L38.22 13.51L36.82 13.51ZM32.55 9.66L35.46 9.66L34.01 5.57L32.55 9.66ZM45.39 13.71L45.39 13.71Q44.52 13.71 43.62 13.52L43.62 13.52L43.62 13.52Q42.73 13.33 42.18 13.08L42.18 13.08L42.36 11.66L42.36 11.66Q43.06 12.00 43.95 12.25L43.95 12.25L43.95 12.25Q44.83 12.50 45.70 12.50L45.70 12.50L45.70 12.50Q46.68 12.50 47.21 12.14L47.21 12.14L47.21 12.14Q47.75 11.79 47.75 11.07L47.75 11.07L47.75 11.07Q47.75 10.54 47.48 10.18L47.48 10.18L47.48 10.18Q47.21 9.83 46.68 9.58L46.68 9.58L46.68 9.58Q46.16 9.34 45.22 9.06L45.22 9.06L45.22 9.06Q44.27 8.78 43.64 8.46L43.64 8.46L43.64 8.46Q43.01 8.13 42.62 7.57L42.62 7.57L42.62 7.57Q42.24 7.01 42.24 6.16L42.24 6.16L42.24 6.16Q42.24 4.97 43.15 4.24L43.15 4.24L43.15 4.24Q44.07 3.51 45.74 3.51L45.74 3.51L45.74 3.51Q46.63 3.51 47.44 3.71L47.44 3.71L47.44 3.71Q48.24 3.91 48.85 4.19L48.85 4.19L48.71 5.60L48.71 5.60Q47.92 5.14 47.19 4.93L47.19 4.93L47.19 4.93Q46.47 4.72 45.68 4.72L45.68 4.72L45.68 4.72Q44.77 4.72 44.23 5.05L44.23 5.05L44.23 5.05Q43.69 5.39 43.69 6.09L43.69 6.09L43.69 6.09Q43.69 6.57 43.94 6.87L43.94 6.87L43.94 6.87Q44.18 7.18 44.65 7.40L44.65 7.40L44.65 7.40Q45.11 7.62 45.93 7.87L45.93 7.87L45.93 7.87Q47.59 8.37 48.40 9.06L48.40 9.06L48.40 9.06Q49.21 9.76 49.21 10.98L49.21 10.98L49.21 10.98Q49.21 12.26 48.24 12.98L48.24 12.98L48.24 12.98Q47.28 13.71 45.39 13.71L45.39 13.71ZM60.34 13.51L58.94 13.51L58.02 6.10L55.36 11.19L52.64 6.09L51.72 13.51L50.32 13.51L51.63 3.71L52.77 3.71L55.34 8.57L57.89 3.71L59.04 3.71L60.34 13.51ZM68.14 13.51L67.20 10.86L63.45 10.86L62.51 13.51L61.11 13.51L64.62 3.71L66.02 3.71L69.54 13.51L68.14 13.51ZM63.87 9.66L66.78 9.66L65.32 5.57L63.87 9.66ZM70.76 13.51L70.76 3.71L73.93 3.71L73.93 3.71Q75.53 3.71 76.43 4.45L76.43 4.45L76.43 4.45Q77.32 5.18 77.32 6.69L77.32 6.69L77.32 6.69Q77.32 8.65 75.61 9.45L75.61 9.45L77.81 13.51L76.19 13.51L74.20 9.69L74.13 9.69L72.16 9.69L72.16 13.51L70.76 13.51ZM72.16 8.50L73.92 8.50L73.92 8.50Q74.90 8.50 75.42 8.02L75.42 8.02L75.42 8.02Q75.94 7.55 75.94 6.69L75.94 6.69L75.94 6.69Q75.94 5.84 75.42 5.37L75.42 5.37L75.42 5.37Q74.91 4.90 73.92 4.90L73.92 4.90L72.16 4.90L72.16 8.50ZM81.14 13.51L81.14 4.91L78.29 4.91L78.29 3.71L85.33 3.71L85.33 4.91L82.47 4.91L82.47 13.51L81.14 13.51ZM86.66 13.51L86.66 3.71L92.64 3.71L92.64 4.91L87.99 4.91L87.99 7.78L91.69 7.78L91.69 8.99L87.99 8.99L87.99 12.31L92.76 12.31L92.76 13.51L86.66 13.51ZM94.42 13.51L94.42 3.71L97.59 3.71L97.59 3.71Q99.19 3.71 100.09 4.45L100.09 4.45L100.09 4.45Q100.98 5.18 100.98 6.69L100.98 6.69L100.98 6.69Q100.98 8.65 99.27 9.45L99.27 9.45L101.47 13.51L99.85 13.51L97.86 9.69L97.79 9.69L95.82 9.69L95.82 13.51L94.42 13.51ZM95.82 8.50L97.58 8.50L97.58 8.50Q98.56 8.50 99.08 8.02L99.08 8.02L99.08 8.02Q99.60 7.55 99.60 6.69L99.60 6.69L99.60 6.69Q99.60 5.84 99.09 5.37L99.09 5.37L99.09 5.37Q98.57 4.90 97.58 4.90L97.58 4.90L95.82 4.90L95.82 8.50ZM106.01 13.51L106.01 3.71L111.99 3.71L111.99 4.91L107.34 4.91L107.34 7.78L111.03 7.78L111.03 8.99L107.34 8.99L107.34 12.31L112.11 12.31L112.11 13.51L106.01 13.51ZM113.76 13.51L113.76 3.71L117.39 3.71L117.39 3.71Q118.82 3.71 119.92 4.29L119.92 4.29L119.92 4.29Q121.03 4.87 121.65 5.98L121.65 5.98L121.65 5.98Q122.26 7.10 122.26 8.61L122.26 8.61L122.26 8.61Q122.26 10.12 121.65 11.23L121.65 11.23L121.65 11.23Q121.03 12.35 119.92 12.93L119.92 12.93L119.92 12.93Q118.82 13.51 117.39 13.51L117.39 13.51L113.76 13.51ZM115.09 12.31L117.39 12.31L117.39 12.31Q119.03 12.31 119.92 11.30L119.92 11.30L119.92 11.30Q120.81 10.30 120.81 8.61L120.81 8.61L120.81 8.61Q120.81 6.92 119.92 5.92L119.92 5.92L119.92 5.92Q119.03 4.91 117.39 4.91L117.39 4.91L115.09 4.91L115.09 12.31ZM127.89 13.71L127.89 13.71Q125.86 13.71 124.84 12.56L124.84 12.56L124.84 12.56Q123.83 11.42 123.83 9.35L123.83 9.35L123.83 3.71L125.16 3.71L125.16 8.99L125.16 8.99Q125.16 10.60 125.73 11.55L125.73 11.55L125.73 11.55Q126.31 12.50 127.89 12.50L127.89 12.50L127.89 12.50Q129.47 12.50 130.05 11.54L130.05 11.54L130.05 11.54Q130.62 10.58 130.62 8.99L130.62 8.99L130.62 3.71L131.95 3.71L131.95 9.35L131.95 9.35Q131.95 11.42 130.94 12.56L130.94 12.56L130.94 12.56Q129.92 13.71 127.89 13.71L127.89 13.71ZM138.45 13.71L138.45 13.71Q137.02 13.71 135.90 13.08L135.90 13.08L135.90 13.08Q134.78 12.45 134.14 11.29L134.14 11.29L134.14 11.29Q133.50 10.14 133.50 8.61L133.50 8.61L133.50 8.61Q133.50 7.08 134.15 5.93L134.15 5.93L134.15 5.93Q134.79 4.77 135.93 4.14L135.93 4.14L135.93 4.14Q137.06 3.51 138.50 3.51L138.50 3.51L138.50 3.51Q139.22 3.51 139.90 3.67L139.90 3.67L139.90 3.67Q140.59 3.82 141.12 4.09L141.12 4.09L140.98 5.32L140.98 5.32Q139.72 4.72 138.49 4.72L138.49 4.72L138.49 4.72Q137.37 4.72 136.57 5.23L136.57 5.23L136.57 5.23Q135.77 5.74 135.37 6.62L135.37 6.62L135.37 6.62Q134.96 7.50 134.96 8.61L134.96 8.61L134.96 8.61Q134.96 9.72 135.37 10.60L135.37 10.60L135.37 10.60Q135.77 11.48 136.56 11.99L136.56 11.99L136.56 11.99Q137.34 12.50 138.46 12.50L138.46 12.50L138.46 12.50Q139.78 12.50 140.98 11.91L140.98 11.91L141.12 13.15L141.12 13.15Q139.90 13.71 138.45 13.71L138.45 13.71ZM148.71 13.51L147.77 10.86L144.02 10.86L143.08 13.51L141.68 13.51L145.19 3.71L146.59 3.71L150.11 13.51L148.71 13.51ZM144.44 9.66L147.35 9.66L145.89 5.57L144.44 9.66ZM153.27 13.51L153.27 4.91L150.42 4.91L150.42 3.71L157.46 3.71L157.46 4.91L154.60 4.91L154.60 13.51L153.27 13.51ZM158.79 13.51L158.79 3.71L160.12 3.71L160.12 13.51L158.79 13.51ZM166.63 13.71L166.63 13.71Q165.23 13.71 164.13 13.08L164.13 13.08L164.13 13.08Q163.03 12.45 162.41 11.29L162.41 11.29L162.41 11.29Q161.80 10.14 161.80 8.61L161.80 8.61L161.80 8.61Q161.80 7.08 162.41 5.93L162.41 5.93L162.41 5.93Q163.03 4.77 164.13 4.14L164.13 4.14L164.13 4.14Q165.23 3.51 166.63 3.51L166.63 3.51L166.63 3.51Q168.03 3.51 169.13 4.14L169.13 4.14L169.13 4.14Q170.23 4.77 170.84 5.93L170.84 5.93L170.84 5.93Q171.46 7.08 171.46 8.61L171.46 8.61L171.46 8.61Q171.46 10.14 170.84 11.29L170.84 11.29L170.84 11.29Q170.23 12.45 169.13 13.08L169.13 13.08L169.13 13.08Q168.03 13.71 166.63 13.71L166.63 13.71ZM166.63 12.42L166.63 12.42Q167.72 12.42 168.49 11.92L168.49 11.92L168.49 11.92Q169.26 11.42 169.64 10.56L169.64 10.56L169.64 10.56Q170.03 9.70 170.03 8.61L170.03 8.61L170.03 8.61Q170.03 7.52 169.64 6.66L169.64 6.66L169.64 6.66Q169.26 5.80 168.49 5.30L168.49 5.30L168.49 5.30Q167.72 4.80 166.63 4.80L166.63 4.80L166.63 4.80Q165.54 4.80 164.77 5.30L164.77 5.30L164.77 5.30Q164.00 5.80 163.61 6.66L163.61 6.66L163.61 6.66Q163.23 7.52 163.23 8.61L163.23 8.61L163.23 8.61Q163.23 9.70 163.61 10.56L163.61 10.56L163.61 10.56Q164.00 11.42 164.77 11.92L164.77 11.92L164.77 11.92Q165.54 12.42 166.63 12.42L166.63 12.42ZM173.14 13.51L173.14 3.71L174.58 3.71L179.41 11.05L179.41 3.71L180.75 3.71L180.75 13.51L179.62 13.51L174.47 5.77L174.47 13.51L173.14 13.51ZM186.14 13.51L186.14 3.71L192.12 3.71L192.12 4.91L187.47 4.91L187.47 7.78L191.17 7.78L191.17 8.99L187.47 8.99L187.47 12.31L192.25 12.31L192.25 13.51L186.14 13.51ZM192.84 13.51L196.17 8.57L192.89 3.71L194.43 3.71L196.94 7.42L199.43 3.71L200.97 3.71L197.71 8.57L201.03 13.51L199.49 13.51L196.94 9.72L194.38 13.51L192.84 13.51ZM202.20 13.51L202.20 3.71L205.44 3.71L205.44 3.71Q207.00 3.71 207.88 4.47L207.88 4.47L207.88 4.47Q208.75 5.24 208.75 6.89L208.75 6.89L208.75 6.89Q208.75 8.51 207.87 9.30L207.87 9.30L207.87 9.30Q206.99 10.08 205.44 10.08L205.44 10.08L203.60 10.08L203.60 13.51L202.20 13.51ZM203.60 8.89L205.24 8.89L205.24 8.89Q206.32 8.89 206.85 8.40L206.85 8.40L206.85 8.40Q207.38 7.91 207.38 6.90L207.38 6.90L207.38 6.90Q207.38 5.88 206.87 5.39L206.87 5.39L206.87 5.39Q206.36 4.90 205.24 4.90L205.24 4.90L203.60 4.90L203.60 8.89ZM210.21 13.51L210.21 3.71L216.19 3.71L216.19 4.91L211.54 4.91L211.54 7.78L215.24 7.78L215.24 8.99L211.54 8.99L211.54 12.31L216.31 12.31L216.31 13.51L210.21 13.51ZM217.97 13.51L217.97 3.71L221.14 3.71L221.14 3.71Q222.74 3.71 223.64 4.45L223.64 4.45L223.64 4.45Q224.53 5.18 224.53 6.69L224.53 6.69L224.53 6.69Q224.53 8.65 222.82 9.45L222.82 9.45L225.02 13.51L223.40 13.51L221.41 9.69L221.34 9.69L219.37 9.69L219.37 13.51L217.97 13.51ZM219.37 8.50L221.13 8.50L221.13 8.50Q222.11 8.50 222.63 8.02L222.63 8.02L222.63 8.02Q223.15 7.55 223.15 6.69L223.15 6.69L223.15 6.69Q223.15 5.84 222.63 5.37L222.63 5.37L222.63 5.37Q222.12 4.90 221.13 4.90L221.13 4.90L219.37 4.90L219.37 8.50ZM226.41 13.51L226.41 3.71L227.74 3.71L227.74 13.51L226.41 13.51ZM229.98 13.51L229.98 3.71L235.96 3.71L235.96 4.91L231.31 4.91L231.31 7.78L235.00 7.78L235.00 8.99L231.31 8.99L231.31 12.31L236.08 12.31L236.08 13.51L229.98 13.51ZM237.73 13.51L237.73 3.71L239.18 3.71L244.01 11.05L244.01 3.71L245.35 3.71L245.35 13.51L244.22 13.51L239.06 5.77L239.06 13.51L237.73 13.51ZM251.96 13.71L251.96 13.71Q250.53 13.71 249.41 13.08L249.41 13.08L249.41 13.08Q248.29 12.45 247.65 11.29L247.65 11.29L247.65 11.29Q247.02 10.14 247.02 8.61L247.02 8.61L247.02 8.61Q247.02 7.08 247.66 5.93L247.66 5.93L247.66 5.93Q248.30 4.77 249.44 4.14L249.44 4.14L249.44 4.14Q250.57 3.51 252.01 3.51L252.01 3.51L252.01 3.51Q252.73 3.51 253.41 3.67L253.41 3.67L253.41 3.67Q254.10 3.82 254.63 4.09L254.63 4.09L254.49 5.32L254.49 5.32Q253.23 4.72 252.00 4.72L252.00 4.72L252.00 4.72Q250.88 4.72 250.08 5.23L250.08 5.23L250.08 5.23Q249.28 5.74 248.88 6.62L248.88 6.62L248.88 6.62Q248.47 7.50 248.47 8.61L248.47 8.61L248.47 8.61Q248.47 9.72 248.88 10.60L248.88 10.60L248.88 10.60Q249.28 11.48 250.07 11.99L250.07 11.99L250.07 11.99Q250.85 12.50 251.97 12.50L251.97 12.50L251.97 12.50Q253.29 12.50 254.49 11.91L254.49 11.91L254.63 13.15L254.63 13.15Q253.41 13.71 251.96 13.71L251.96 13.71ZM256.21 13.51L256.21 3.71L262.19 3.71L262.19 4.91L257.54 4.91L257.54 7.78L261.24 7.78L261.24 8.99L257.54 8.99L257.54 12.31L262.32 12.31L262.32 13.51L256.21 13.51Z"></path></g></svg>