<svg data-v-fde0c5aa="" xmlns="http://www.w3.org/2000/svg" viewBox="0 0 300 300" class="icon"><!----><defs data-v-fde0c5aa=""><linearGradient data-v-fde0c5aa="" gradientTransform="rotate(25)" id="215f2d38-13a6-4ce7-ae4f-00069ce49890" x1="0%" y1="0%" x2="100%" y2="0%"><stop data-v-fde0c5aa="" offset="0%" stop-color="#0D7CE9" stop-opacity="1"></stop><stop data-v-fde0c5aa="" offset="100%" stop-color="#15CFF1" stop-opacity="1"></stop></linearGradient></defs><rect data-v-fde0c5aa="" fill="url(#215f2d38-13a6-4ce7-ae4f-00069ce49890)" x="0" y="0" width="300px" height="300px" class="logo-background-square"></rect><!----><defs data-v-fde0c5aa=""><!----></defs><g data-v-fde0c5aa="" id="9ee821fb-1ae6-40c2-9772-b35b1960a82e" fill="#ffffff" stroke="none" transform="matrix(3.666668065389531,0,0,3.666668065389531,36.331959437799874,32.66657557484013)"><path d="M3 49h6a1 1 0 0 0 1-1V37c0-1.858-1.28-3.411-3-3.858V13.721l7 2.333V37c0 5.729 4.401 10.448 10 10.955V59c0 1.654 1.346 3 3 3h10c1.654 0 3-1.346 3-3V47.955c5.599-.507 10-5.226 10-10.955V16.054l9.316-3.105a1 1 0 0 0 0-1.898l-27-9a1.008 1.008 0 0 0-.633 0l-27 9a1 1 0 0 0 .001 1.898l.316.105v20.088c-1.72.447-3 2-3 3.858v11a1 1 0 0 0 1 1zm27.316-6.949L25 40.279v-2.661l2.553 1.276a1 1 0 0 0 .895 0L32 37.118l3.553 1.776a1 1 0 0 0 .895 0L39 37.618v2.661l-5.316 1.772A1 1 0 0 0 33 43v9h-2v-9a1 1 0 0 0-.684-.949zM38 54v2H26v-2h12zm0 5c0 .551-.449 1-1 1H27c-.551 0-1-.449-1-1v-1h12v1zm1-13a1 1 0 0 0-1 1v5h-3v-8.279l5.316-1.772A1 1 0 0 0 41 41v-5a.998.998 0 0 0-1.447-.895L36 36.882l-3.553-1.776a1 1 0 0 0-.895 0L28 36.882l-3.553-1.776A.998.998 0 0 0 23 36v5a1 1 0 0 0 .684.949L29 43.721V52h-3v-5a1 1 0 0 0-1-1c-4.962 0-9-4.038-9-9v-9.587l15.667 5.53a1 1 0 0 0 .666 0L48 27.413V37c0 4.962-4.038 9-9 9zm9-20.708l-16 5.647-16-5.647V16.72l15.684 5.228a.978.978 0 0 0 .632.001L48 16.721v8.571zM32 4.054L55.838 12 32 19.946 8.162 12 32 4.054zM4 37c0-1.103.897-2 2-2s2 .897 2 2v10H4V37z"></path></g><!----></svg>